<svg width="68" height="68" viewBox="0 0 68 68" fill="none" xmlns="http://www.w3.org/2000/svg">
<circle cx="34" cy="34" r="34" fill="#F7F7F7"/>
<path fill-rule="evenodd" clip-rule="evenodd" d="M31.8874 27.2495V28.7097H31.0164V29.5806H33.6293V28.7097H32.7583V27.638C33.1712 27.7682 33.6097 27.8387 34.0648 27.8387C35.228 27.8387 36.3219 27.3854 37.1441 26.5632C37.3144 26.3929 37.3144 26.1177 37.1441 25.9474L34.6806 23.4839L35.6826 22.4818C35.8529 22.5637 36.041 22.6129 36.2422 22.6129C36.9625 22.6129 37.5487 22.0267 37.5487 21.3065C37.5487 20.5862 36.9625 20 36.2422 20C35.5219 20 34.9358 20.5862 34.9358 21.3065C34.9358 21.5076 34.985 21.6958 35.0668 21.866L34.0648 22.8681L31.6013 20.4046C31.431 20.2343 31.1558 20.2343 30.9855 20.4046C30.1633 21.2268 29.71 22.3207 29.71 23.4839C29.71 25.0917 30.5879 26.4952 31.8874 27.2495ZM36.2422 20.871C36.4822 20.871 36.6777 21.0665 36.6777 21.3065C36.6777 21.5464 36.4822 21.7419 36.2422 21.7419C36.0023 21.7419 35.8067 21.5464 35.8067 21.3065C35.8067 21.0665 36.0023 20.871 36.2422 20.871ZM31.3125 21.3474L36.2013 26.2361C35.5929 26.7108 34.8487 26.9677 34.0648 26.9677C33.6028 26.9677 33.162 26.8754 32.7583 26.7112C32.3547 26.5471 31.8874 26.1991 31.8874 26.1991C31.0922 25.5603 30.5809 24.5813 30.5809 23.4839C30.5809 22.7 30.8379 21.9558 31.3125 21.3474ZM36.6775 38.2903H28.8388C28.5984 38.2903 28.4033 38.4849 28.4033 38.7258V44.8225C28.4033 45.0634 28.5984 45.258 28.8388 45.258H36.6775C36.9179 45.258 37.113 45.0634 37.113 44.8225V38.7258C37.113 38.4849 36.9179 38.2903 36.6775 38.2903ZM36.242 44.3871H29.2743V39.1613H36.242V44.3871ZM38.8544 38.2903H37.9834V39.1613H38.8544V38.2903ZM37.9834 40.0322H38.8544V40.9032H37.9834V40.0322ZM38.8544 41.7742H37.9834V42.6451H38.8544V41.7742ZM37.9834 43.5161H38.8544V44.3871H37.9834V43.5161ZM39.5982 25.9692L38.9824 25.3534L39.2376 25.0982C39.5525 24.7833 39.7258 24.3644 39.7258 23.9193C39.7258 23.4743 39.5525 23.0553 39.2376 22.7405L38.9824 22.4853L39.5982 21.8695L39.8534 22.1247C40.3329 22.6037 40.5968 23.2413 40.5968 23.9193C40.5968 24.5974 40.3329 25.2349 39.8534 25.714L39.5982 25.9692ZM41.4679 23.9194C41.4679 24.9262 41.076 25.873 40.3635 26.5854L40.2891 26.6599L40.9048 27.2757L40.9793 27.2012C41.8564 26.3246 42.3389 25.1592 42.3389 23.9194C42.3389 22.6796 41.8564 21.5142 40.9793 20.6376L40.9048 20.5631L40.2891 21.1789L40.3635 21.2534C41.076 21.9658 41.4679 22.9125 41.4679 23.9194ZM27.6597 25.9692L27.4045 25.714C26.925 25.2349 26.6611 24.5974 26.6611 23.9193C26.6611 23.2413 26.925 22.6037 27.4045 22.1247L27.6597 21.8695L28.2755 22.4853L28.0203 22.7405C27.7054 23.0553 27.5321 23.4743 27.5321 23.9193C27.5321 24.3644 27.7054 24.7833 28.0203 25.0982L28.2755 25.3534L27.6597 25.9692ZM26.353 27.2757L26.9688 26.6599L26.8943 26.5854C26.1818 25.873 25.7899 24.9262 25.7899 23.9194C25.7899 22.9125 26.1818 21.9658 26.8943 21.2534L26.9688 21.1789L26.353 20.5631L26.2785 20.6376C25.4015 21.5142 24.9189 22.6796 24.9189 23.9194C24.9189 25.1592 25.4015 26.3246 26.2785 27.2012L26.353 27.2757ZM40.6082 42.9629C40.6122 42.9603 40.6161 42.9576 40.62 42.9548L41.1382 43.6555C40.9688 43.7805 40.7934 43.8968 40.6186 44.0126L40.5969 44.027V44.8226C40.5969 46.0232 39.6201 47 38.4195 47H28.8388C27.6382 47 26.6614 46.0232 26.6614 44.8226V44.027L26.6397 44.0126C26.4649 43.8967 26.2895 43.7805 26.1201 43.6555L26.6375 42.9548C26.6416 42.958 26.646 42.9608 26.6504 42.9637L26.6553 42.967L26.661 42.9709V38.7258C26.661 37.5252 27.6378 36.5484 28.8384 36.5484H31.8868C31.8868 35.89 32.2578 35.323 32.7978 35.0268L29.837 32.066L30.4527 31.4502L33.6287 34.6262L36.8047 31.4502L37.4205 32.066L34.4596 35.0268C34.9996 35.323 35.3707 35.89 35.3707 36.5484H38.4191C39.6197 36.5484 40.5965 37.5252 40.5965 38.7258V42.9709L40.6031 42.9663L40.6082 42.9629ZM34.4997 36.5484C34.4997 36.0681 34.1091 35.6774 33.6287 35.6774C33.1484 35.6774 32.7578 36.0681 32.7578 36.5484H34.4997ZM38.4191 46.1291C39.1393 46.1291 39.7255 45.5429 39.7255 44.8226V38.7258C39.7255 38.0055 39.1393 37.4194 38.4191 37.4194H28.8384C28.1181 37.4194 27.532 38.0055 27.532 38.7258V44.8226C27.532 45.5429 28.1181 46.1291 28.8384 46.1291H38.4191ZM46.1536 31.8708L45.29 31.9823C45.3541 32.4818 45.3867 32.9922 45.3867 33.5L45.3858 33.6463L46.2568 33.6572L46.2577 33.5C46.2577 32.9556 46.2224 32.4074 46.1536 31.8708ZM45.0699 38.8556L44.2812 38.4854C44.5168 37.9833 44.718 37.4603 44.8792 36.9312L45.7122 37.1846C45.5394 37.7533 45.3234 38.3156 45.0699 38.8556ZM41.2715 42.4356L41.8381 43.0976C42.2901 42.7104 42.7182 42.288 43.1118 41.8412L42.4582 41.2655C42.0919 41.6814 41.6926 42.0751 41.2715 42.4356ZM45.942 36.3197L45.0928 36.1259C45.216 35.5859 45.3014 35.0324 45.3467 34.4794L46.2146 34.5508C46.1662 35.1444 46.0744 35.7392 45.942 36.3197ZM45.1539 31.1597L46.0075 30.9873C45.8895 30.4029 45.7283 29.8224 45.5285 29.2623L44.708 29.555C44.8944 30.0758 45.0442 30.6158 45.1539 31.1597ZM43.6792 41.1484L42.9863 40.6201C43.3221 40.1794 43.6295 39.7108 43.9 39.2266L44.6603 39.652C44.3699 40.172 44.0398 40.675 43.6792 41.1484ZM44.4015 28.7793L45.1988 28.4292C44.9598 27.884 44.6789 27.3509 44.3645 26.8453L43.625 27.3052C43.9176 27.776 44.1789 28.272 44.4015 28.7793ZM43.3025 25.3812C43.495 25.6103 43.6818 25.8494 43.8573 26.0911L43.1527 26.6028C42.9894 26.3776 42.8152 26.1551 42.6357 25.9413L43.3025 25.3812ZM24.6219 25.9413L23.9552 25.3812C23.7627 25.6103 23.5759 25.8494 23.4004 26.0911L24.105 26.6028C24.2687 26.3776 24.4425 26.1551 24.6219 25.9413ZM21.042 34.5365L21.9099 34.4659C21.9548 35.0194 22.0397 35.5738 22.1621 36.1129L21.3129 36.3059C21.1813 35.7262 21.0899 35.1309 21.042 34.5365ZM22.3755 36.9198L21.542 37.1724C21.7144 37.7411 21.93 38.3038 22.183 38.8442L22.9721 38.4758C22.7365 37.9724 22.5362 37.4485 22.3755 36.9198ZM22.5908 39.6425L23.3516 39.2179C23.6216 39.7013 23.9286 40.1707 24.2644 40.6123L23.5711 41.1397C23.2105 40.6659 22.8809 40.1616 22.5908 39.6425ZM24.7932 41.2568L24.1387 41.8317C24.5328 42.2798 24.9613 42.7035 25.412 43.0898L25.9786 42.4279C25.5588 42.069 25.1599 41.6745 24.7932 41.2568ZM22.9001 26.834L23.6396 27.2943C23.3465 27.7655 23.0848 28.2611 22.8614 28.7675L22.0645 28.4165C22.304 27.8722 22.5853 27.34 22.9001 26.834ZM22.5542 29.5419L21.7337 29.2488C21.5334 29.8092 21.3718 30.3897 21.2529 30.9733L22.1065 31.1466C22.2171 30.6036 22.3678 30.0631 22.5542 29.5419ZM21.9698 31.9688C21.9041 32.4727 21.871 32.9878 21.871 33.5L21.8718 33.6319L21.0009 33.6437L21 33.5C21 32.9504 21.0357 32.3973 21.1063 31.8564L21.9698 31.9688Z" fill="#939BA4"/>
<path d="M31.8874 28.7097V28.9097H32.0874V28.7097H31.8874ZM31.8874 27.2495H32.0874V27.1343L31.9878 27.0765L31.8874 27.2495ZM31.0164 28.7097V28.5097H30.8164V28.7097H31.0164ZM31.0164 29.5806H30.8164V29.7806H31.0164V29.5806ZM33.6293 29.5806V29.7806H33.8293V29.5806H33.6293ZM33.6293 28.7097H33.8293V28.5097H33.6293V28.7097ZM32.7583 28.7097H32.5583V28.9097H32.7583V28.7097ZM32.7583 27.638L32.8185 27.4472L32.5583 27.3652V27.638H32.7583ZM37.1441 26.5632L37.0027 26.4218H37.0027L37.1441 26.5632ZM37.1441 25.9474L37.0027 26.0888H37.0027L37.1441 25.9474ZM34.6806 23.4839L34.5392 23.3424L34.3977 23.4839L34.5392 23.6253L34.6806 23.4839ZM35.6826 22.4818L35.7693 22.3016L35.6415 22.2401L35.5412 22.3404L35.6826 22.4818ZM35.0668 21.866L35.2083 22.0075L35.3085 21.9072L35.2471 21.7794L35.0668 21.866ZM34.0648 22.8681L33.9234 23.0095L34.0648 23.1509L34.2062 23.0095L34.0648 22.8681ZM31.6013 20.4046L31.7427 20.2631V20.2631L31.6013 20.4046ZM30.9855 20.4046L31.1269 20.546V20.546L30.9855 20.4046ZM36.2013 26.2361L36.3243 26.3938L36.5027 26.2547L36.3427 26.0947L36.2013 26.2361ZM31.3125 21.3474L31.454 21.206L31.294 21.046L31.1549 21.2244L31.3125 21.3474ZM32.7583 26.7112L32.8337 26.526L32.7583 26.7112ZM31.8874 26.1991L31.762 26.3551L31.7679 26.3595L31.8874 26.1991ZM29.2743 44.3871H29.0743V44.5871H29.2743V44.3871ZM36.242 44.3871V44.5871H36.442V44.3871H36.242ZM29.2743 39.1613V38.9613H29.0743V39.1613H29.2743ZM36.242 39.1613H36.442V38.9613H36.242V39.1613ZM37.9834 38.2903V38.0903H37.7834V38.2903H37.9834ZM38.8544 38.2903H39.0544V38.0903H38.8544V38.2903ZM37.9834 39.1613H37.7834V39.3613H37.9834V39.1613ZM38.8544 39.1613V39.3613H39.0544V39.1613H38.8544ZM38.8544 40.0322H39.0544V39.8322H38.8544V40.0322ZM37.9834 40.0322V39.8322H37.7834V40.0322H37.9834ZM38.8544 40.9032V41.1032H39.0544V40.9032H38.8544ZM37.9834 40.9032H37.7834V41.1032H37.9834V40.9032ZM37.9834 41.7742V41.5742H37.7834V41.7742H37.9834ZM38.8544 41.7742H39.0544V41.5742H38.8544V41.7742ZM37.9834 42.6451H37.7834V42.8451H37.9834V42.6451ZM38.8544 42.6451V42.8451H39.0544V42.6451H38.8544ZM38.8544 43.5161H39.0544V43.3161H38.8544V43.5161ZM37.9834 43.5161V43.3161H37.7834V43.5161H37.9834ZM38.8544 44.3871V44.5871H39.0544V44.3871H38.8544ZM37.9834 44.3871H37.7834V44.5871H37.9834V44.3871ZM38.9824 25.3534L38.841 25.212L38.6996 25.3534L38.841 25.4948L38.9824 25.3534ZM39.5982 25.9692L39.4568 26.1106L39.5982 26.252L39.7396 26.1106L39.5982 25.9692ZM39.2376 25.0982L39.0962 24.9568L39.0962 24.9568L39.2376 25.0982ZM39.2376 22.7405L39.0962 22.8819L39.0962 22.8819L39.2376 22.7405ZM38.9824 22.4853L38.841 22.3439L38.6996 22.4853L38.841 22.6267L38.9824 22.4853ZM39.5982 21.8695L39.7396 21.7281L39.5982 21.5867L39.4568 21.7281L39.5982 21.8695ZM39.8534 22.1247L39.712 22.2661L39.712 22.2662L39.8534 22.1247ZM39.8534 25.714L39.712 25.5725L39.712 25.5725L39.8534 25.714ZM40.3635 26.5854L40.505 26.7268L40.505 26.7268L40.3635 26.5854ZM40.2891 26.6599L40.1476 26.5185L40.0062 26.6599L40.1476 26.8013L40.2891 26.6599ZM40.9048 27.2757L40.7634 27.4171L40.9048 27.5585L41.0463 27.4171L40.9048 27.2757ZM40.9793 27.2012L40.8379 27.0597L40.8379 27.0598L40.9793 27.2012ZM40.9793 20.6376L40.8379 20.779L40.8379 20.779L40.9793 20.6376ZM40.9048 20.5631L41.0463 20.4217L40.9048 20.2803L40.7634 20.4217L40.9048 20.5631ZM40.2891 21.1789L40.1476 21.0375L40.0062 21.1789L40.1476 21.3203L40.2891 21.1789ZM40.3635 21.2534L40.505 21.1119L40.505 21.1119L40.3635 21.2534ZM27.4045 25.714L27.5459 25.5725L27.5459 25.5725L27.4045 25.714ZM27.6597 25.9692L27.5183 26.1106L27.6597 26.252L27.8011 26.1106L27.6597 25.9692ZM27.4045 22.1247L27.5459 22.2662L27.5459 22.2661L27.4045 22.1247ZM27.6597 21.8695L27.8011 21.7281L27.6597 21.5867L27.5183 21.7281L27.6597 21.8695ZM28.2755 22.4853L28.4169 22.6267L28.5583 22.4853L28.4169 22.3439L28.2755 22.4853ZM28.0203 22.7405L27.8789 22.5991L28.0203 22.7405ZM28.0203 25.0982L28.1617 24.9568L28.0203 25.0982ZM28.2755 25.3534L28.4169 25.4948L28.5583 25.3534L28.4169 25.212L28.2755 25.3534ZM26.9688 26.6599L27.1102 26.8013L27.2516 26.6599L27.1102 26.5185L26.9688 26.6599ZM26.353 27.2757L26.2116 27.4171L26.353 27.5585L26.4944 27.4171L26.353 27.2757ZM26.8943 26.5854L26.7529 26.7268L26.7529 26.7268L26.8943 26.5854ZM26.8943 21.2534L26.7529 21.1119L26.7529 21.1119L26.8943 21.2534ZM26.9688 21.1789L27.1102 21.3203L27.2516 21.1789L27.1102 21.0375L26.9688 21.1789ZM26.353 20.5631L26.4944 20.4217L26.353 20.2803L26.2116 20.4217L26.353 20.5631ZM26.2785 20.6376L26.4199 20.779L26.4199 20.779L26.2785 20.6376ZM26.2785 27.2012L26.4199 27.0598L26.4199 27.0597L26.2785 27.2012ZM40.62 42.9548L40.7808 42.8359L40.6632 42.6769L40.5029 42.7927L40.62 42.9548ZM40.6082 42.9629L40.4973 42.7965L40.4969 42.7967L40.6082 42.9629ZM41.1382 43.6555L41.257 43.8164L41.418 43.6975L41.299 43.5366L41.1382 43.6555ZM40.6186 44.0126L40.5081 43.8459L40.5081 43.8459L40.6186 44.0126ZM40.5969 44.027L40.4864 43.8602L40.3969 43.9196V44.027H40.5969ZM26.6614 44.027H26.8614V43.9196L26.7719 43.8602L26.6614 44.027ZM26.6397 44.0126L26.5293 44.1793L26.5293 44.1793L26.6397 44.0126ZM26.1201 43.6555L25.9592 43.5367L25.8404 43.6976L26.0013 43.8164L26.1201 43.6555ZM26.6375 42.9548L26.759 42.7959L26.5974 42.6724L26.4766 42.836L26.6375 42.9548ZM26.6504 42.9637L26.7607 42.7969L26.7602 42.7966L26.6504 42.9637ZM26.6553 42.967L26.7693 42.8026L26.7657 42.8002L26.6553 42.967ZM26.661 42.9709L26.5471 43.1353L26.861 43.3529V42.9709H26.661ZM31.8868 36.5484V36.7484H32.0868V36.5484H31.8868ZM32.7978 35.0268L32.894 35.2022L33.1278 35.074L32.9392 34.8854L32.7978 35.0268ZM29.837 32.066L29.6955 31.9245L29.5541 32.066L29.6955 32.2074L29.837 32.066ZM30.4527 31.4502L30.5942 31.3088L30.4527 31.1674L30.3113 31.3088L30.4527 31.4502ZM33.6287 34.6262L33.4873 34.7676L33.6287 34.909L33.7702 34.7676L33.6287 34.6262ZM36.8047 31.4502L36.9461 31.3088L36.8047 31.1674L36.6633 31.3088L36.8047 31.4502ZM37.4205 32.066L37.5619 32.2074L37.7033 32.066L37.5619 31.9245L37.4205 32.066ZM34.4596 35.0268L34.3182 34.8854L34.1297 35.074L34.3635 35.2022L34.4596 35.0268ZM35.3707 36.5484H35.1707V36.7484H35.3707V36.5484ZM40.5965 42.9709H40.3965V43.354L40.7108 43.135L40.5965 42.9709ZM40.6031 42.9663L40.4917 42.8001L40.4888 42.8022L40.6031 42.9663ZM34.4997 36.5484V36.7484H34.6997V36.5484H34.4997ZM32.7578 36.5484H32.5578V36.7484H32.7578V36.5484ZM45.29 31.9823L45.2644 31.784L45.0663 31.8096L45.0917 32.0078L45.29 31.9823ZM46.1536 31.8708L46.352 31.8454L46.3265 31.6469L46.128 31.6725L46.1536 31.8708ZM45.3867 33.5L45.5867 33.5012V33.5H45.3867ZM45.3858 33.6463L45.1858 33.6451L45.1847 33.8438L45.3833 33.8463L45.3858 33.6463ZM46.2568 33.6572L46.2543 33.8572L46.4557 33.8597L46.4568 33.6583L46.2568 33.6572ZM46.2577 33.5L46.4577 33.5011V33.5H46.2577ZM44.2812 38.4854L44.1002 38.4004L44.0152 38.5815L44.1963 38.6664L44.2812 38.4854ZM45.0699 38.8556L44.9849 39.0366L45.166 39.1216L45.251 38.9405L45.0699 38.8556ZM44.8792 36.9312L44.9374 36.7398L44.7461 36.6816L44.6878 36.8729L44.8792 36.9312ZM45.7122 37.1846L45.9036 37.2428L45.9618 37.0515L45.7705 36.9933L45.7122 37.1846ZM41.8381 43.0976L41.6861 43.2276L41.8162 43.3796L41.9681 43.2495L41.8381 43.0976ZM41.2715 42.4356L41.1414 42.2837L40.9895 42.4138L41.1195 42.5657L41.2715 42.4356ZM43.1118 41.8412L43.2619 41.9734L43.3941 41.8233L43.244 41.6911L43.1118 41.8412ZM42.4582 41.2655L42.5904 41.1154L42.4403 40.9832L42.3081 41.1333L42.4582 41.2655ZM45.0928 36.1259L44.8978 36.0814L44.8533 36.2764L45.0483 36.3209L45.0928 36.1259ZM45.942 36.3197L45.8975 36.5147L46.0925 36.5592L46.137 36.3642L45.942 36.3197ZM45.3467 34.4794L45.3631 34.28L45.1637 34.2636L45.1473 34.463L45.3467 34.4794ZM46.2146 34.5508L46.4139 34.567L46.4301 34.3679L46.231 34.3515L46.2146 34.5508ZM46.0075 30.9873L46.0471 31.1833L46.2431 31.1437L46.2035 30.9477L46.0075 30.9873ZM45.1539 31.1597L44.9579 31.1993L44.9975 31.3954L45.1936 31.3558L45.1539 31.1597ZM45.5285 29.2623L45.7168 29.1951L45.6496 29.0068L45.4613 29.074L45.5285 29.2623ZM44.708 29.555L44.6408 29.3666L44.4522 29.4339L44.5197 29.6224L44.708 29.555ZM42.9863 40.6201L42.8272 40.4989L42.7061 40.6579L42.8651 40.7792L42.9863 40.6201ZM43.6792 41.1484L43.5579 41.3074L43.717 41.4287L43.8383 41.2695L43.6792 41.1484ZM43.9 39.2266L43.9976 39.052L43.823 38.9543L43.7254 39.129L43.9 39.2266ZM44.6603 39.652L44.8349 39.7496L44.9324 39.5751L44.758 39.4775L44.6603 39.652ZM45.1988 28.4292L45.2792 28.6123L45.4623 28.5319L45.382 28.3489L45.1988 28.4292ZM44.4015 28.7793L44.2183 28.8597L44.2987 29.0429L44.4819 28.9624L44.4015 28.7793ZM44.3645 26.8453L44.5343 26.7397L44.4287 26.5699L44.2588 26.6755L44.3645 26.8453ZM43.625 27.3052L43.5194 27.1354L43.3496 27.241L43.4551 27.4108L43.625 27.3052ZM43.8573 26.0911L43.9748 26.2529L44.1366 26.1354L44.0191 25.9736L43.8573 26.0911ZM43.3025 25.3812L43.4556 25.2526L43.3269 25.0995L43.1738 25.2281L43.3025 25.3812ZM43.1527 26.6028L42.9908 26.7202L43.1083 26.8822L43.2702 26.7646L43.1527 26.6028ZM42.6357 25.9413L42.5071 25.7881L42.354 25.9167L42.4825 26.0698L42.6357 25.9413ZM23.9552 25.3812L24.0838 25.2281L23.9307 25.0995L23.8021 25.2526L23.9552 25.3812ZM24.6219 25.9413L24.7751 26.0698L24.9036 25.9167L24.7506 25.7881L24.6219 25.9413ZM23.4004 26.0911L23.2386 25.9736L23.121 26.1354L23.2829 26.2529L23.4004 26.0911ZM24.105 26.6028L23.9875 26.7646L24.1492 26.882L24.2668 26.7204L24.105 26.6028ZM21.9099 34.4659L22.1093 34.4498L22.0931 34.2504L21.8937 34.2666L21.9099 34.4659ZM21.042 34.5365L21.0258 34.3371L20.8266 34.3533L20.8426 34.5526L21.042 34.5365ZM22.1621 36.1129L22.2064 36.308L22.4014 36.2637L22.3571 36.0687L22.1621 36.1129ZM21.3129 36.3059L21.1178 36.3501L21.1621 36.5452L21.3572 36.5009L21.3129 36.3059ZM21.542 37.1724L21.484 36.981L21.2926 37.039L21.3506 37.2304L21.542 37.1724ZM22.3755 36.9198L22.5669 36.8616L22.5087 36.6704L22.3175 36.7284L22.3755 36.9198ZM22.183 38.8442L22.0019 38.929L22.0866 39.1099L22.2676 39.0254L22.183 38.8442ZM22.9721 38.4758L23.0567 38.657L23.2381 38.5723L23.1533 38.391L22.9721 38.4758ZM23.3516 39.2179L23.5262 39.1204L23.4287 38.9458L23.2541 39.0433L23.3516 39.2179ZM22.5908 39.6425L22.4934 39.4678L22.3186 39.5654L22.4162 39.74L22.5908 39.6425ZM24.2644 40.6123L24.3855 40.7715L24.5446 40.6504L24.4236 40.4913L24.2644 40.6123ZM23.5711 41.1397L23.4119 41.2608L23.533 41.4199L23.6922 41.2989L23.5711 41.1397ZM24.1387 41.8317L24.0067 41.6814L23.8563 41.8135L23.9885 41.9638L24.1387 41.8317ZM24.7932 41.2568L24.9435 41.1249L24.8115 40.9746L24.6612 41.1066L24.7932 41.2568ZM25.412 43.0898L25.2819 43.2416L25.4338 43.3719L25.564 43.2198L25.412 43.0898ZM25.9786 42.4279L26.1305 42.5579L26.2607 42.4059L26.1085 42.2758L25.9786 42.4279ZM23.6396 27.2943L23.8094 27.3999L23.915 27.2302L23.7453 27.1245L23.6396 27.2943ZM22.9001 26.834L23.0058 26.6642L22.836 26.5585L22.7303 26.7283L22.9001 26.834ZM22.8614 28.7675L22.7808 28.9506L22.9637 29.0311L23.0444 28.8482L22.8614 28.7675ZM22.0645 28.4165L21.8814 28.336L21.8009 28.519L21.9838 28.5996L22.0645 28.4165ZM21.7337 29.2488L21.801 29.0604L21.6127 28.9932L21.5454 29.1815L21.7337 29.2488ZM22.5542 29.5419L22.7425 29.6092L22.8098 29.4208L22.6214 29.3535L22.5542 29.5419ZM21.2529 30.9733L21.057 30.9334L21.017 31.1295L21.2131 31.1693L21.2529 30.9733ZM22.1065 31.1466L22.0667 31.3426L22.2626 31.3824L22.3025 31.1865L22.1065 31.1466ZM21.871 33.5H21.671L21.671 33.5013L21.871 33.5ZM21.9698 31.9688L22.1681 31.9947L22.194 31.7963L21.9956 31.7705L21.9698 31.9688ZM21.8718 33.6319L21.8745 33.8319L22.0731 33.8292L22.0718 33.6306L21.8718 33.6319ZM21.0009 33.6437L20.8009 33.6449L20.8021 33.8464L21.0036 33.8437L21.0009 33.6437ZM21 33.5H20.8L20.8 33.5012L21 33.5ZM21.1063 31.8564L21.1321 31.6581L20.9338 31.6323L20.9079 31.8306L21.1063 31.8564ZM32.0874 28.7097V27.2495H31.6874V28.7097H32.0874ZM31.0164 28.9097H31.8874V28.5097H31.0164V28.9097ZM31.2164 29.5806V28.7097H30.8164V29.5806H31.2164ZM33.6293 29.3806H31.0164V29.7806H33.6293V29.3806ZM33.4293 28.7097V29.5806H33.8293V28.7097H33.4293ZM32.7583 28.9097H33.6293V28.5097H32.7583V28.9097ZM32.5583 27.638V28.7097H32.9583V27.638H32.5583ZM34.0648 27.6387C33.6305 27.6387 33.2123 27.5714 32.8185 27.4472L32.6982 27.8287C33.1301 27.9649 33.5889 28.0387 34.0648 28.0387V27.6387ZM37.0027 26.4218C36.218 27.2065 35.1749 27.6387 34.0648 27.6387V28.0387C35.281 28.0387 36.4258 27.5643 37.2855 26.7046L37.0027 26.4218ZM37.0027 26.0888C37.0949 26.181 37.0949 26.3296 37.0027 26.4218L37.2855 26.7046C37.5339 26.4562 37.5339 26.0544 37.2855 25.806L37.0027 26.0888ZM34.5392 23.6253L37.0027 26.0888L37.2855 25.806L34.822 23.3424L34.5392 23.6253ZM35.5412 22.3404L34.5392 23.3424L34.822 23.6253L35.824 22.6232L35.5412 22.3404ZM36.2422 22.4129C36.0744 22.4129 35.9157 22.372 35.7693 22.3016L35.596 22.6621C35.7901 22.7554 36.0077 22.8129 36.2422 22.8129V22.4129ZM37.3487 21.3065C37.3487 21.9163 36.8521 22.4129 36.2422 22.4129V22.8129C37.073 22.8129 37.7487 22.1372 37.7487 21.3065H37.3487ZM36.2422 20.2C36.8521 20.2 37.3487 20.6966 37.3487 21.3065H37.7487C37.7487 20.4757 37.073 19.8 36.2422 19.8V20.2ZM35.1358 21.3065C35.1358 20.6966 35.6324 20.2 36.2422 20.2V19.8C35.4115 19.8 34.7358 20.4757 34.7358 21.3065H35.1358ZM35.2471 21.7794C35.1767 21.633 35.1358 21.4743 35.1358 21.3065H34.7358C34.7358 21.541 34.7933 21.7586 34.8866 21.9527L35.2471 21.7794ZM34.2062 23.0095L35.2083 22.0075L34.9254 21.7246L33.9234 22.7267L34.2062 23.0095ZM31.4598 20.546L33.9234 23.0095L34.2062 22.7267L31.7427 20.2631L31.4598 20.546ZM31.1269 20.546C31.2191 20.4538 31.3677 20.4538 31.4598 20.546L31.7427 20.2631C31.4943 20.0148 31.0925 20.0148 30.8441 20.2631L31.1269 20.546ZM29.91 23.4839C29.91 22.3738 30.3422 21.3307 31.1269 20.546L30.8441 20.2631C29.9844 21.1228 29.51 22.2676 29.51 23.4839H29.91ZM31.9878 27.0765C30.7469 26.3563 29.91 25.0169 29.91 23.4839H29.51C29.51 25.1664 30.4289 26.6342 31.787 27.4225L31.9878 27.0765ZM36.8777 21.3065C36.8777 20.956 36.5926 20.671 36.2422 20.671V21.071C36.3717 21.071 36.4777 21.177 36.4777 21.3065H36.8777ZM36.2422 21.9419C36.5926 21.9419 36.8777 21.6569 36.8777 21.3065H36.4777C36.4777 21.4359 36.3717 21.5419 36.2422 21.5419V21.9419ZM35.6067 21.3065C35.6067 21.6569 35.8918 21.9419 36.2422 21.9419V21.5419C36.1127 21.5419 36.0067 21.4359 36.0067 21.3065H35.6067ZM36.2422 20.671C35.8918 20.671 35.6067 20.956 35.6067 21.3065H36.0067C36.0067 21.177 36.1127 21.071 36.2422 21.071V20.671ZM36.3427 26.0947L31.454 21.206L31.1711 21.4888L36.0599 26.3776L36.3427 26.0947ZM34.0648 27.1677C34.893 27.1677 35.6806 26.896 36.3243 26.3938L36.0783 26.0784C35.5052 26.5256 34.8043 26.7677 34.0648 26.7677V27.1677ZM32.683 26.8965C33.1096 27.07 33.5759 27.1677 34.0648 27.1677V26.7677C33.6296 26.7677 33.2145 26.6808 32.8337 26.526L32.683 26.8965ZM31.8874 26.1991C31.7679 26.3595 31.7679 26.3595 31.768 26.3596C31.768 26.3596 31.768 26.3596 31.768 26.3596C31.768 26.3596 31.7681 26.3596 31.7681 26.3597C31.7682 26.3597 31.7684 26.3598 31.7685 26.36C31.7688 26.3602 31.7692 26.3605 31.7698 26.3609C31.7708 26.3617 31.7723 26.3628 31.7743 26.3642C31.7781 26.367 31.7837 26.3711 31.7909 26.3763C31.8052 26.3867 31.8258 26.4015 31.8518 26.4197C31.9036 26.4561 31.977 26.5063 32.0633 26.5619C32.234 26.6715 32.464 26.8074 32.683 26.8965L32.8337 26.526C32.649 26.4509 32.4435 26.3307 32.2796 26.2254C32.1987 26.1734 32.13 26.1263 32.0816 26.0924C32.0575 26.0754 32.0385 26.0618 32.0256 26.0525C32.0192 26.0478 32.0144 26.0443 32.0112 26.0419C32.0096 26.0408 32.0084 26.0399 32.0077 26.0393C32.0073 26.0391 32.0071 26.0389 32.0069 26.0388C32.0069 26.0387 32.0068 26.0387 32.0068 26.0387C32.0068 26.0387 32.0068 26.0387 32.0068 26.0387C32.0068 26.0387 32.0068 26.0387 32.0068 26.0387C32.0068 26.0387 32.0068 26.0387 31.8874 26.1991ZM30.3809 23.4839C30.3809 24.6449 30.9221 25.6801 31.7621 26.355L32.0126 26.0432C31.2623 25.4404 30.7809 24.5177 30.7809 23.4839H30.3809ZM31.1549 21.2244C30.6526 21.868 30.3809 22.6556 30.3809 23.4839H30.7809C30.7809 22.7444 31.0231 22.0435 31.4702 21.4704L31.1549 21.2244ZM28.8388 38.4903H36.6775V38.0903H28.8388V38.4903ZM28.6033 38.7258C28.6033 38.5955 28.7087 38.4903 28.8388 38.4903V38.0903C28.4881 38.0903 28.2033 38.3744 28.2033 38.7258H28.6033ZM28.6033 44.8225V38.7258H28.2033V44.8225H28.6033ZM28.8388 45.058C28.7087 45.058 28.6033 44.9528 28.6033 44.8225H28.2033C28.2033 45.174 28.4881 45.458 28.8388 45.458V45.058ZM36.6775 45.058H28.8388V45.458H36.6775V45.058ZM36.913 44.8225C36.913 44.9528 36.8076 45.058 36.6775 45.058V45.458C37.0282 45.458 37.313 45.174 37.313 44.8225H36.913ZM36.913 38.7258V44.8225H37.313V38.7258H36.913ZM36.6775 38.4903C36.8076 38.4903 36.913 38.5955 36.913 38.7258H37.313C37.313 38.3744 37.0282 38.0903 36.6775 38.0903V38.4903ZM29.2743 44.5871H36.242V44.1871H29.2743V44.5871ZM29.0743 39.1613V44.3871H29.4743V39.1613H29.0743ZM36.242 38.9613H29.2743V39.3613H36.242V38.9613ZM36.442 44.3871V39.1613H36.042V44.3871H36.442ZM37.9834 38.4903H38.8544V38.0903H37.9834V38.4903ZM38.1834 39.1613V38.2903H37.7834V39.1613H38.1834ZM38.8544 38.9613H37.9834V39.3613H38.8544V38.9613ZM38.6544 38.2903V39.1613H39.0544V38.2903H38.6544ZM38.8544 39.8322H37.9834V40.2322H38.8544V39.8322ZM39.0544 40.9032V40.0322H38.6544V40.9032H39.0544ZM37.9834 41.1032H38.8544V40.7032H37.9834V41.1032ZM37.7834 40.0322V40.9032H38.1834V40.0322H37.7834ZM37.9834 41.9742H38.8544V41.5742H37.9834V41.9742ZM38.1834 42.6451V41.7742H37.7834V42.6451H38.1834ZM38.8544 42.4451H37.9834V42.8451H38.8544V42.4451ZM38.6544 41.7742V42.6451H39.0544V41.7742H38.6544ZM38.8544 43.3161H37.9834V43.7161H38.8544V43.3161ZM39.0544 44.3871V43.5161H38.6544V44.3871H39.0544ZM37.9834 44.5871H38.8544V44.1871H37.9834V44.5871ZM37.7834 43.5161V44.3871H38.1834V43.5161H37.7834ZM38.841 25.4948L39.4568 26.1106L39.7396 25.8277L39.1238 25.212L38.841 25.4948ZM39.0962 24.9568L38.841 25.212L39.1238 25.4948L39.379 25.2396L39.0962 24.9568ZM39.5258 23.9193C39.5258 24.3114 39.3735 24.6795 39.0962 24.9568L39.379 25.2396C39.7314 24.8872 39.9258 24.4174 39.9258 23.9193H39.5258ZM39.0962 22.8819C39.3735 23.1592 39.5258 23.5273 39.5258 23.9193H39.9258C39.9258 23.4213 39.7314 22.9515 39.379 22.5991L39.0962 22.8819ZM38.841 22.6267L39.0962 22.8819L39.379 22.5991L39.1238 22.3439L38.841 22.6267ZM39.4568 21.7281L38.841 22.3439L39.1238 22.6267L39.7396 22.0109L39.4568 21.7281ZM39.9948 21.9833L39.7396 21.7281L39.4568 22.0109L39.712 22.2661L39.9948 21.9833ZM40.7968 23.9193C40.7968 23.1883 40.5118 22.4998 39.9947 21.9832L39.712 22.2662C40.1539 22.7076 40.3968 23.2943 40.3968 23.9193H40.7968ZM39.9947 25.8554C40.5118 25.3388 40.7968 24.6504 40.7968 23.9193H40.3968C40.3968 24.5444 40.1539 25.131 39.712 25.5725L39.9947 25.8554ZM39.7396 26.1106L39.9948 25.8554L39.712 25.5725L39.4568 25.8277L39.7396 26.1106ZM40.505 26.7268C41.2549 25.9769 41.6679 24.9793 41.6679 23.9194H41.2679C41.2679 24.8732 40.897 25.7691 40.2221 26.444L40.505 26.7268ZM40.4305 26.8013L40.505 26.7268L40.2221 26.444L40.1476 26.5185L40.4305 26.8013ZM41.0463 27.1342L40.4305 26.5185L40.1476 26.8013L40.7634 27.4171L41.0463 27.1342ZM40.8379 27.0598L40.7634 27.1342L41.0463 27.4171L41.1207 27.3426L40.8379 27.0598ZM42.1389 23.9194C42.1389 25.1062 41.6774 26.2206 40.8379 27.0597L41.1207 27.3426C42.0353 26.4285 42.5389 25.2122 42.5389 23.9194H42.1389ZM40.8379 20.779C41.6774 21.6181 42.1389 22.7326 42.1389 23.9194H42.5389C42.5389 22.6265 42.0353 21.4103 41.1207 20.4961L40.8379 20.779ZM40.7634 20.7045L40.8379 20.779L41.1207 20.4962L41.0463 20.4217L40.7634 20.7045ZM40.4305 21.3203L41.0463 20.7045L40.7634 20.4217L40.1476 21.0375L40.4305 21.3203ZM40.505 21.1119L40.4305 21.0375L40.1476 21.3203L40.2221 21.3948L40.505 21.1119ZM41.6679 23.9194C41.6679 22.8595 41.2549 21.8619 40.505 21.1119L40.2221 21.3948C40.897 22.0697 41.2679 22.9656 41.2679 23.9194H41.6679ZM27.2631 25.8554L27.5183 26.1106L27.8011 25.8277L27.5459 25.5725L27.2631 25.8554ZM26.4611 23.9193C26.4611 24.6504 26.7461 25.3388 27.2631 25.8554L27.5459 25.5725C27.104 25.131 26.8611 24.5444 26.8611 23.9193H26.4611ZM27.2631 21.9832C26.7461 22.4998 26.4611 23.1883 26.4611 23.9193H26.8611C26.8611 23.2943 27.104 22.7076 27.5459 22.2662L27.2631 21.9832ZM27.5183 21.7281L27.2631 21.9833L27.5459 22.2661L27.8011 22.0109L27.5183 21.7281ZM28.4169 22.3439L27.8011 21.7281L27.5183 22.0109L28.1341 22.6267L28.4169 22.3439ZM28.1617 22.8819L28.4169 22.6267L28.1341 22.3439L27.8789 22.5991L28.1617 22.8819ZM27.7321 23.9193C27.7321 23.5273 27.8844 23.1592 28.1617 22.8819L27.8789 22.5991C27.5265 22.9515 27.3321 23.4213 27.3321 23.9193H27.7321ZM28.1617 24.9568C27.8844 24.6795 27.7321 24.3114 27.7321 23.9193H27.3321C27.3321 24.4174 27.5265 24.8872 27.8789 25.2396L28.1617 24.9568ZM28.4169 25.212L28.1617 24.9568L27.8789 25.2396L28.1341 25.4948L28.4169 25.212ZM27.8011 26.1106L28.4169 25.4948L28.1341 25.212L27.5183 25.8277L27.8011 26.1106ZM26.8273 26.5185L26.2116 27.1342L26.4944 27.4171L27.1102 26.8013L26.8273 26.5185ZM26.7529 26.7268L26.8273 26.8013L27.1102 26.5185L27.0357 26.444L26.7529 26.7268ZM25.5899 23.9194C25.5899 24.9793 26.0029 25.9769 26.7529 26.7268L27.0357 26.444C26.3608 25.7691 25.9899 24.8732 25.9899 23.9194H25.5899ZM26.7529 21.1119C26.0029 21.8619 25.5899 22.8595 25.5899 23.9194H25.9899C25.9899 22.9656 26.3608 22.0697 27.0357 21.3948L26.7529 21.1119ZM26.8273 21.0375L26.7529 21.1119L27.0357 21.3948L27.1102 21.3203L26.8273 21.0375ZM26.2116 20.7045L26.8273 21.3203L27.1102 21.0375L26.4944 20.4217L26.2116 20.7045ZM26.4199 20.779L26.4944 20.7045L26.2116 20.4217L26.1371 20.4962L26.4199 20.779ZM25.1189 23.9194C25.1189 22.7326 25.5804 21.6181 26.4199 20.779L26.1371 20.4961C25.2225 21.4103 24.7189 22.6265 24.7189 23.9194H25.1189ZM26.4199 27.0597C25.5804 26.2206 25.1189 25.1062 25.1189 23.9194H24.7189C24.7189 25.2122 25.2225 26.4285 26.1371 27.3426L26.4199 27.0597ZM26.4944 27.1342L26.4199 27.0598L26.1371 27.3426L26.2116 27.4171L26.4944 27.1342ZM40.5029 42.7927C40.5029 42.7927 40.5028 42.7927 40.5026 42.7929C40.5024 42.793 40.5021 42.7933 40.5016 42.7936C40.5005 42.7943 40.4994 42.7951 40.4973 42.7965L40.7192 43.1293C40.7226 43.127 40.7296 43.1223 40.7371 43.1169L40.5029 42.7927ZM41.299 43.5366L40.7808 42.8359L40.4592 43.0737L40.9774 43.7744L41.299 43.5366ZM40.729 44.1793C40.9032 44.0639 41.0829 43.945 41.257 43.8164L41.0194 43.4946C40.8548 43.6161 40.6837 43.7296 40.5081 43.8459L40.729 44.1793ZM40.7074 44.1937L40.729 44.1793L40.5081 43.8459L40.4864 43.8602L40.7074 44.1937ZM40.7969 44.8226V44.027H40.3969V44.8226H40.7969ZM38.4195 47.2C39.7306 47.2 40.7969 46.1337 40.7969 44.8226H40.3969C40.3969 45.9128 39.5097 46.8 38.4195 46.8V47.2ZM28.8388 47.2H38.4195V46.8H28.8388V47.2ZM26.4614 44.8226C26.4614 46.1337 27.5278 47.2 28.8388 47.2V46.8C27.7487 46.8 26.8614 45.9128 26.8614 44.8226H26.4614ZM26.4614 44.027V44.8226H26.8614V44.027H26.4614ZM26.5293 44.1793L26.551 44.1937L26.7719 43.8602L26.7502 43.8459L26.5293 44.1793ZM26.0013 43.8164C26.1755 43.945 26.3551 44.0639 26.5293 44.1793L26.7502 43.8459C26.5746 43.7296 26.4035 43.6161 26.2389 43.4946L26.0013 43.8164ZM26.4766 42.836L25.9592 43.5367L26.281 43.7743L26.7984 43.0736L26.4766 42.836ZM26.7602 42.7966C26.7577 42.7949 26.757 42.7945 26.7565 42.7942C26.7562 42.794 26.7573 42.7946 26.759 42.7959L26.516 43.1137C26.5268 43.1219 26.5373 43.1287 26.5406 43.1309L26.7602 42.7966ZM26.7657 42.8002L26.7607 42.7969L26.5401 43.1306L26.545 43.1338L26.7657 42.8002ZM26.7749 42.8065L26.7693 42.8026L26.5414 43.1314L26.5471 43.1353L26.7749 42.8065ZM26.461 38.7258V42.9709H26.861V38.7258H26.461ZM28.8384 36.3484C27.5273 36.3484 26.461 37.4147 26.461 38.7258H26.861C26.861 37.6357 27.7482 36.7484 28.8384 36.7484V36.3484ZM31.8868 36.3484H28.8384V36.7484H31.8868V36.3484ZM32.7017 34.8515C32.102 35.1803 31.6868 35.8121 31.6868 36.5484H32.0868C32.0868 35.9679 32.4136 35.4656 32.894 35.2022L32.7017 34.8515ZM29.6955 32.2074L32.6564 35.1682L32.9392 34.8854L29.9784 31.9245L29.6955 32.2074ZM30.3113 31.3088L29.6955 31.9245L29.9784 32.2074L30.5942 31.5916L30.3113 31.3088ZM33.7702 34.4848L30.5942 31.3088L30.3113 31.5916L33.4873 34.7676L33.7702 34.4848ZM36.6633 31.3088L33.4873 34.4848L33.7702 34.7676L36.9461 31.5916L36.6633 31.3088ZM37.5619 31.9245L36.9461 31.3088L36.6633 31.5916L37.2791 32.2074L37.5619 31.9245ZM34.6011 35.1682L37.5619 32.2074L37.2791 31.9245L34.3182 34.8854L34.6011 35.1682ZM35.5707 36.5484C35.5707 35.8121 35.1554 35.1803 34.5558 34.8515L34.3635 35.2022C34.8438 35.4656 35.1707 35.9679 35.1707 36.5484H35.5707ZM38.4191 36.3484H35.3707V36.7484H38.4191V36.3484ZM40.7965 38.7258C40.7965 37.4147 39.7301 36.3484 38.4191 36.3484V36.7484C39.5092 36.7484 40.3965 37.6357 40.3965 38.7258H40.7965ZM40.7965 42.9709V38.7258H40.3965V42.9709H40.7965ZM40.4888 42.8022L40.4821 42.8068L40.7108 43.135L40.7175 43.1304L40.4888 42.8022ZM40.4969 42.7967L40.4918 42.8002L40.7145 43.1324L40.7196 43.129L40.4969 42.7967ZM33.6287 35.8774C33.9986 35.8774 34.2997 36.1785 34.2997 36.5484H34.6997C34.6997 35.9576 34.2195 35.4774 33.6287 35.4774V35.8774ZM32.9578 36.5484C32.9578 36.1785 33.2588 35.8774 33.6287 35.8774V35.4774C33.0379 35.4774 32.5578 35.9576 32.5578 36.5484H32.9578ZM34.4997 36.3484H32.7578V36.7484H34.4997V36.3484ZM39.5255 44.8226C39.5255 45.4324 39.0289 45.9291 38.4191 45.9291V46.3291C39.2498 46.3291 39.9255 45.6533 39.9255 44.8226H39.5255ZM39.5255 38.7258V44.8226H39.9255V38.7258H39.5255ZM38.4191 37.6194C39.0289 37.6194 39.5255 38.116 39.5255 38.7258H39.9255C39.9255 37.8951 39.2498 37.2194 38.4191 37.2194V37.6194ZM28.8384 37.6194H38.4191V37.2194H28.8384V37.6194ZM27.732 38.7258C27.732 38.116 28.2286 37.6194 28.8384 37.6194V37.2194C28.0077 37.2194 27.332 37.8951 27.332 38.7258H27.732ZM27.732 44.8226V38.7258H27.332V44.8226H27.732ZM28.8384 45.9291C28.2286 45.9291 27.732 45.4324 27.732 44.8226H27.332C27.332 45.6533 28.0077 46.3291 28.8384 46.3291V45.9291ZM38.4191 45.9291H28.8384V46.3291H38.4191V45.9291ZM45.3156 32.1807L46.1792 32.0692L46.128 31.6725L45.2644 31.784L45.3156 32.1807ZM45.5867 33.5C45.5867 32.9837 45.5535 32.4649 45.4884 31.9569L45.0917 32.0078C45.1546 32.4988 45.1867 33.0007 45.1867 33.5H45.5867ZM45.5858 33.6475L45.5867 33.5012L45.1867 33.4988L45.1858 33.6451L45.5858 33.6475ZM46.2593 33.4572L45.3883 33.4463L45.3833 33.8463L46.2543 33.8572L46.2593 33.4572ZM46.0577 33.4989L46.0568 33.6561L46.4568 33.6583L46.4577 33.5011L46.0577 33.4989ZM45.9552 31.8963C46.023 32.4244 46.0577 32.9642 46.0577 33.5H46.4577C46.4577 32.9471 46.4219 32.3903 46.352 31.8454L45.9552 31.8963ZM44.1963 38.6664L44.9849 39.0366L45.1549 38.6745L44.3662 38.3043L44.1963 38.6664ZM44.6878 36.8729C44.5295 37.3929 44.3317 37.9069 44.1002 38.4004L44.4623 38.5703C44.702 38.0596 44.9066 37.5277 45.0705 36.9894L44.6878 36.8729ZM45.7705 36.9933L44.9374 36.7398L44.821 37.1225L45.654 37.3759L45.7705 36.9933ZM45.251 38.9405C45.5085 38.3918 45.7279 37.8207 45.9036 37.2428L45.5209 37.1264C45.3508 37.686 45.1382 38.2393 44.8889 38.7706L45.251 38.9405ZM41.99 42.9675L41.4234 42.3056L41.1195 42.5657L41.6861 43.2276L41.99 42.9675ZM42.9618 41.709C42.5743 42.1488 42.1528 42.5647 41.708 42.9457L41.9681 43.2495C42.4273 42.8562 42.8621 42.4272 43.2619 41.9734L42.9618 41.709ZM42.326 41.4156L42.9797 41.9913L43.244 41.6911L42.5904 41.1154L42.326 41.4156ZM41.4016 42.5876C41.8298 42.2209 42.2358 41.8206 42.6083 41.3977L42.3081 41.1333C41.9481 41.5422 41.5554 41.9292 41.1414 42.2837L41.4016 42.5876ZM45.0483 36.3209L45.8975 36.5147L45.9865 36.1247L45.1373 35.9309L45.0483 36.3209ZM45.1473 34.463C45.1028 35.0066 45.0189 35.5507 44.8978 36.0814L45.2878 36.1704C45.4131 35.6211 45.4999 35.0582 45.546 34.4957L45.1473 34.463ZM46.231 34.3515L45.3631 34.28L45.3303 34.6787L46.1982 34.7501L46.231 34.3515ZM46.137 36.3642C46.2715 35.7745 46.3648 35.1702 46.4139 34.567L46.0152 34.5346C45.9677 35.1185 45.8773 35.704 45.747 36.2753L46.137 36.3642ZM45.9679 30.7912L45.1143 30.9637L45.1936 31.3558L46.0471 31.1833L45.9679 30.7912ZM45.3401 29.3296C45.5367 29.8805 45.6953 30.4518 45.8114 31.0269L46.2035 30.9477C46.0836 30.3539 45.9199 29.7642 45.7168 29.1951L45.3401 29.3296ZM44.7752 29.7434L45.5957 29.4507L45.4613 29.074L44.6408 29.3666L44.7752 29.7434ZM45.35 31.1202C45.2384 30.5669 45.086 30.0176 44.8963 29.4876L44.5197 29.6224C44.7028 30.134 44.85 30.6647 44.9579 31.1993L45.35 31.1202ZM42.8651 40.7792L43.5579 41.3074L43.8004 40.9893L43.1076 40.4611L42.8651 40.7792ZM43.7254 39.129C43.4596 39.605 43.1573 40.0657 42.8272 40.4989L43.1454 40.7413C43.4869 40.2931 43.7995 39.8166 44.0746 39.3241L43.7254 39.129ZM44.758 39.4775L43.9976 39.052L43.8023 39.4011L44.5627 39.8266L44.758 39.4775ZM43.8383 41.2695C44.2045 40.7887 44.5398 40.2778 44.8349 39.7496L44.4857 39.5545C44.1999 40.0662 43.875 40.5612 43.5201 41.0272L43.8383 41.2695ZM45.1184 28.2461L44.3211 28.5962L44.4819 28.9624L45.2792 28.6123L45.1184 28.2461ZM44.1946 26.951C44.504 27.4485 44.7804 27.973 45.0157 28.5095L45.382 28.3489C45.1391 27.7949 44.8537 27.2534 44.5343 26.7397L44.1946 26.951ZM43.7306 27.475L44.4701 27.0152L44.2588 26.6755L43.5194 27.1354L43.7306 27.475ZM44.5846 28.699C44.3583 28.1829 44.0925 27.6785 43.7949 27.1996L43.4551 27.4108C43.7428 27.8735 43.9996 28.3611 44.2183 28.8597L44.5846 28.699ZM44.0191 25.9736C43.8408 25.7281 43.6511 25.4852 43.4556 25.2526L43.1494 25.5099C43.3388 25.7353 43.5227 25.9707 43.6954 26.2086L44.0191 25.9736ZM43.2702 26.7646L43.9748 26.2529L43.7398 25.9292L43.0351 26.4409L43.2702 26.7646ZM42.4825 26.0698C42.659 26.2802 42.8303 26.499 42.9908 26.7202L43.3146 26.4853C43.1484 26.2562 42.9713 26.03 42.789 25.8127L42.4825 26.0698ZM43.1738 25.2281L42.5071 25.7881L42.7644 26.0944L43.4311 25.5344L43.1738 25.2281ZM23.8266 25.5344L24.4933 26.0944L24.7506 25.7881L24.0838 25.2281L23.8266 25.5344ZM23.5622 26.2086C23.735 25.9707 23.9189 25.7353 24.1083 25.5099L23.8021 25.2526C23.6065 25.4852 23.4168 25.7281 23.2386 25.9736L23.5622 26.2086ZM24.2225 26.4409L23.5179 25.9292L23.2829 26.2529L23.9875 26.7646L24.2225 26.4409ZM24.4687 25.8127C24.2863 26.0301 24.1097 26.2563 23.9433 26.4851L24.2668 26.7204C24.4278 26.4989 24.5987 26.28 24.7751 26.0698L24.4687 25.8127ZM21.8937 34.2666L21.0258 34.3371L21.0582 34.7358L21.9261 34.6653L21.8937 34.2666ZM22.3571 36.0687C22.2368 35.5388 22.1533 34.9939 22.1093 34.4498L21.7106 34.4821C21.7562 35.045 21.8425 35.6088 21.967 36.1572L22.3571 36.0687ZM21.3572 36.5009L22.2064 36.308L22.1178 35.9179L21.2686 36.1108L21.3572 36.5009ZM20.8426 34.5526C20.8913 35.1566 20.9842 35.7613 21.1178 36.3501L21.5079 36.2616C21.3785 35.6912 21.2885 35.1053 21.2413 34.5204L20.8426 34.5526ZM21.6 37.3638L22.4335 37.1112L22.3175 36.7284L21.484 36.981L21.6 37.3638ZM22.3642 38.7594C22.1152 38.2276 21.9031 37.6739 21.7334 37.1143L21.3506 37.2304C21.5258 37.8083 21.7448 38.3799 22.0019 38.929L22.3642 38.7594ZM22.8875 38.2946L22.0984 38.663L22.2676 39.0254L23.0567 38.657L22.8875 38.2946ZM22.1842 36.978C22.3476 37.5156 22.5513 38.0484 22.791 38.5606L23.1533 38.391C22.9218 37.8963 22.7248 37.3813 22.5669 36.8616L22.1842 36.978ZM23.2541 39.0433L22.4934 39.4678L22.6883 39.8171L23.4491 39.3925L23.2541 39.0433ZM24.4236 40.4913C24.0936 40.0572 23.7917 39.5956 23.5262 39.1204L23.177 39.3154C23.4515 39.8069 23.7637 40.2843 24.1052 40.7334L24.4236 40.4913ZM23.6922 41.2989L24.3855 40.7715L24.1433 40.4531L23.45 40.9805L23.6922 41.2989ZM22.4162 39.74C22.7108 40.2672 23.0456 40.7794 23.4119 41.2608L23.7302 41.0186C23.3754 40.5523 23.0509 40.0559 22.7654 39.5449L22.4162 39.74ZM24.2706 41.9819L24.9252 41.4071L24.6612 41.1066L24.0067 41.6814L24.2706 41.9819ZM25.5422 42.9379C25.0987 42.5579 24.6768 42.1407 24.2889 41.6996L23.9885 41.9638C24.3887 42.4188 24.8239 42.8492 25.2819 43.2416L25.5422 42.9379ZM25.8266 42.2978L25.2601 42.9597L25.564 43.2198L26.1305 42.5579L25.8266 42.2978ZM24.6429 41.3888C25.0158 41.8134 25.4214 42.2147 25.8486 42.5799L26.1085 42.2758C25.6961 41.9233 25.304 41.5355 24.9435 41.1249L24.6429 41.3888ZM23.7453 27.1245L23.0058 26.6642L22.7945 27.0038L23.5339 27.4641L23.7453 27.1245ZM23.0444 28.8482C23.264 28.3504 23.5213 27.8631 23.8094 27.3999L23.4698 27.1887C23.1717 27.6678 22.9056 28.1717 22.6784 28.6868L23.0444 28.8482ZM21.9838 28.5996L22.7808 28.9506L22.942 28.5845L22.1451 28.2335L21.9838 28.5996ZM22.7303 26.7283C22.4105 27.2423 22.1248 27.7829 21.8814 28.336L22.2475 28.4971C22.4832 27.9615 22.7601 27.4377 23.07 26.9396L22.7303 26.7283ZM21.6664 29.4371L22.4869 29.7302L22.6214 29.3535L21.801 29.0604L21.6664 29.4371ZM21.4489 31.0132C21.5659 30.4389 21.7249 29.8675 21.922 29.3161L21.5454 29.1815C21.3418 29.751 21.1777 30.3406 21.057 30.9334L21.4489 31.0132ZM22.1463 30.9506L21.2927 30.7773L21.2131 31.1693L22.0667 31.3426L22.1463 30.9506ZM22.3658 29.4745C22.1762 30.0048 22.023 30.5544 21.9105 31.1067L22.3025 31.1865C22.4112 30.6528 22.5593 30.1215 22.7425 29.6092L22.3658 29.4745ZM22.071 33.5C22.071 32.9964 22.1035 32.4898 22.1681 31.9947L21.7715 31.9429C21.7046 32.4555 21.671 32.9793 21.671 33.5H22.071ZM22.0718 33.6306L22.071 33.4986L21.671 33.5013L21.6718 33.6332L22.0718 33.6306ZM21.0036 33.8437L21.8745 33.8319L21.8691 33.4319L20.9982 33.4437L21.0036 33.8437ZM20.8 33.5012L20.8009 33.6449L21.2009 33.6425L21.2 33.4987L20.8 33.5012ZM20.9079 31.8306C20.8363 32.3801 20.8 32.9418 20.8 33.5H21.2C21.2 32.9589 21.2352 32.4145 21.3046 31.8823L20.9079 31.8306ZM21.9956 31.7705L21.1321 31.6581L21.0805 32.0548L21.944 32.1671L21.9956 31.7705Z" fill="#939BA4"/>
</svg>
